<svg width="48" height="48" viewBox="0 0 48 48" fill="none" xmlns="http://www.w3.org/2000/svg">
<g clip-path="url(#clip0_50_300)">
<path d="M24 48C37.2548 48 48 37.2548 48 24C48 10.7452 37.2548 0 24 0C10.7452 0 0 10.7452 0 24C0 37.2548 10.7452 48 24 48Z" fill="#B8BAC0"/>
<path d="M24 36.007C21.2056 36.007 18.6703 34.8079 16.7997 32.8698C16.7983 34.0313 16.7561 35.7077 16.4481 36.9309C16.6501 37.0544 16.8069 37.2571 16.8375 37.5093C17.2367 40.7577 20.3156 43.207 24 43.207C27.6836 43.207 30.7625 40.7574 31.1625 37.5093C31.1935 37.2568 31.3469 37.0544 31.552 36.9313C31.244 35.708 31.2017 34.0314 31.2003 32.8698C29.3297 34.8079 26.7944 36.007 24 36.007Z" fill="white"/>
<path d="M31.044 33.0174C29.1891 34.8651 26.7198 36.007 24 36.007C21.2056 36.007 18.6703 34.8079 16.7997 32.8698C16.7983 34.0313 16.7561 35.7077 16.4481 36.9309C16.6501 37.0544 16.8069 37.2571 16.8375 37.5093C17.014 38.9452 17.7153 40.2237 18.7598 41.2047C23.5766 40.5265 29.0437 35.7702 31.044 33.0174Z" fill="#D7DBE0"/>
<path d="M31.2 16.007H17.6C15.3945 16.007 13.6 17.8015 13.6 20.007V24.807C13.6 30.9828 18.2656 36.007 24 36.007C29.7344 36.007 34.4 30.9828 34.4 24.807V19.207C34.4 17.4426 32.9648 16.007 31.2 16.007Z" fill="white"/>
<path d="M29.6 7.20697H19.2C17.6953 7.20697 16.4305 8.25077 16.0898 9.65187C13.3359 10.002 11.2 12.3598 11.2 15.207V19.207C11.2 21.2687 12.0752 23.1921 13.6 24.559V20.007C13.6 17.8015 15.3945 16.007 17.6 16.007H31.2C32.9648 16.007 34.4 17.4425 34.4 19.207V24.5581C35.9251 23.1914 36.8 21.2682 36.8 19.207V14.407C36.8 10.4371 33.5703 7.20697 29.6 7.20697Z" fill="#5C546A"/>
<path d="M6.16321 40.0544C10.5562 44.9319 16.9191 48 24 48C31.0809 48 37.4438 44.9319 41.8368 40.0544C41.0708 39.0188 39.9906 38.1774 38.6016 37.7885C38.5696 37.7795 38.5375 37.7725 38.5047 37.7678L32.1188 36.8096C32.0797 36.8037 31.9961 36.8006 31.9563 36.8006C31.5524 36.8006 31.2118 37.1018 31.1625 37.5029C30.7625 40.7509 27.6836 43.2006 24 43.2006C20.3156 43.2006 17.2367 40.7514 16.8375 37.5029C16.7875 37.09 16.4156 36.7795 16.0234 36.8009C15.9765 36.7982 15.9304 36.8021 15.8812 36.8095L9.49531 37.7677C9.46251 37.7724 9.43051 37.7794 9.39841 37.7884C8.00941 38.1775 6.92921 39.0188 6.16321 40.0544Z" fill="#5C546A"/>
</g>
<defs>
<clipPath id="clip0_50_300">
<rect width="48" height="48" fill="white"/>
</clipPath>
</defs>
</svg>
