<svg width="65" height="65" viewBox="0 0 65 65" fill="none" xmlns="http://www.w3.org/2000/svg">
<path d="M53.954 53.9548C63.9289 43.9801 65.1241 31.2392 62.1277 21.2949C61.5834 19.4896 61.862 17.5377 62.7499 15.8743C65.1365 11.4022 65.1998 6.76988 61.664 3.2342C58.1266 -0.303544 53.4909 -0.237741 49.0163 2.1528C47.354 3.04099 45.4028 3.32034 43.5977 2.7775C33.656 -0.212096 20.9244 0.98742 10.9556 10.9562C0.99102 20.9208 -0.211657 33.646 2.77325 43.586C3.31528 45.3909 3.03544 47.3416 2.14682 49.0036C-0.246495 53.4797 -0.313743 58.1177 3.22541 61.6567C6.75968 65.1908 11.3897 65.1286 15.8601 62.7447C17.5242 61.8574 19.4766 61.5799 21.282 62.1242C31.2281 65.1254 43.9754 63.9334 53.954 53.9548Z" fill="#64872A"/>
<path d="M39.7506 13.0107C33.2374 11.052 24.8963 11.8379 18.3653 18.3689C14.7835 21.9507 12.9297 26.077 12.3089 30.1476" stroke="white" stroke-width="4" stroke-linecap="round"/>
</svg>
