<svg width="81" height="76" viewBox="0 0 81 76" fill="none" xmlns="http://www.w3.org/2000/svg">
<path d="M63.5022 1.10061C62.9633 1.42393 61.7778 2.60944 60.8618 3.71411C59.9457 4.81878 58.6794 6.3276 58.0597 7.08202C57.44 7.80948 56.497 8.91416 55.985 9.53385C55.4731 10.1535 53.8296 12.1473 52.3477 13.9525C50.8658 15.7847 48.8181 18.2635 47.7673 19.4759C43.9683 23.9215 37.502 31.789 36.8014 32.8667C35.5351 34.7527 35.8045 37.4201 37.4481 38.9289C38.2564 39.7103 39.846 40.3569 40.8968 40.3569C41.9745 40.3569 44.2108 39.2253 44.7497 38.3901C44.9652 38.0398 45.3425 37.5818 45.5311 37.3662C45.7197 37.1507 46.3663 36.3693 46.9591 35.6419C47.5518 34.8875 48.0907 34.2408 48.1715 34.16C48.2523 34.0792 49.1145 33.0553 50.0575 31.8968C51.0275 30.7382 52.2938 29.2024 52.8866 28.5019C53.4793 27.8014 54.6379 26.4003 55.4462 25.4034C56.2545 24.3796 57.413 23.0055 58.0327 22.305C58.6255 21.6314 59.4068 20.7153 59.784 20.2573C60.1343 19.7992 61.6431 17.9671 63.125 16.2158C64.6069 14.4914 66.7085 12.0126 67.7592 10.7463C70.0225 8.07892 70.8038 6.65092 70.8038 5.22293C70.8038 3.44468 69.4028 1.39699 67.7592 0.777294C66.466 0.292316 64.5799 0.427032 63.5022 1.10061Z" fill="#68374F"/>
<path d="M2.96072 31.4656C1.18246 32.732 0.913028 33.5133 0.805255 37.474C0.724425 40.2491 0.778312 41.1921 1.15552 42.1082C1.72133 43.617 3.14932 44.8834 4.52342 45.0989C5.11617 45.2067 5.68198 45.3953 5.76281 45.53C5.84364 45.6647 6.22085 47.5508 6.57111 49.7332C6.94832 51.9156 7.37941 54.3674 7.51412 55.1757C7.67578 55.984 7.89133 57.385 8.02605 58.2742C8.48408 61.2918 9.07683 65.01 9.64264 68.1085C9.93902 69.8059 10.3162 72.0422 10.4509 73.093C10.6126 74.1168 10.8551 75.0868 10.9898 75.2215C11.1515 75.3831 22.306 75.5448 40.9776 75.5987L70.6961 75.7334L71.2888 72.2577C72.2857 66.4649 72.9323 62.6659 73.2018 60.8338C73.3365 59.8638 73.7676 57.2503 74.1448 55.041C74.522 52.8047 75.0339 49.8409 75.2764 48.4399C75.4919 47.0388 75.7344 45.7456 75.7883 45.5839C75.8422 45.4222 76.3811 45.2067 76.9738 45.0989C78.4018 44.8834 80.0454 43.4284 80.4495 42.0274C80.6381 41.4346 80.7728 39.5486 80.7728 37.8242C80.7728 34.4833 80.4765 33.2439 79.3448 32.0584C78.0246 30.6573 78.1054 30.6573 65.981 30.6573C54.9342 30.6573 54.6648 30.6573 54.2876 31.1962C53.8565 31.8159 51.5394 34.591 47.9829 38.7403C45.1 42.1082 43.9683 42.8087 41.1124 42.9973C39.6305 43.0782 39.0916 42.9973 37.8792 42.4585C35.8854 41.5155 34.9424 40.6533 34.0263 38.8211C32.9216 36.6926 32.8947 34.16 33.9185 32.0584L34.619 30.6573H19.3422H4.06539L2.96072 31.4656ZM21.8479 50.6223C23.3837 51.4036 23.3837 51.3767 23.3837 60.4835V68.8629L22.7101 69.6712C21.4707 71.153 19.3961 71.0453 18.4531 69.4826C18.0489 68.782 17.995 67.7313 17.995 60.5105C18.022 51.7808 18.0759 51.4306 19.3692 50.7031C20.1775 50.272 21.0935 50.2451 21.8479 50.6223ZM32.5713 51.1073L33.3527 51.8886V60.3757C33.3527 68.3779 33.3258 68.8898 32.8138 69.5095C32.0055 70.5603 30.847 70.9375 29.8501 70.5334C28.2335 69.8598 28.2335 69.8867 28.2335 60.4027V51.727L29.0687 51.0264C30.2273 50.0565 31.5206 50.0834 32.5713 51.1073ZM42.5404 51.1073L43.3217 51.8886V60.4835C43.3217 69.9675 43.3217 69.9675 41.5973 70.5334C40.5466 70.8567 39.6844 70.6142 38.8761 69.7251C38.3641 69.1592 38.3372 68.7551 38.3372 60.3757V51.6192L39.0916 50.9725C40.1693 50.0565 41.5165 50.1104 42.5404 51.1073ZM52.6441 51.242L53.5601 52.1581V60.268C53.5601 69.3478 53.5063 69.6981 51.7819 70.4256C50.5964 70.9106 49.7073 70.695 48.8451 69.6712L48.1715 68.8629V60.5643V52.2658L48.8451 51.4306C49.4648 50.7301 49.9228 50.5145 51.3777 50.3529C51.5663 50.3529 52.1322 50.7301 52.6441 51.242ZM62.7478 51.1611L63.5291 51.9964V60.4296V68.8629L62.8556 69.6712C62.4784 70.1292 61.8048 70.5603 61.3737 70.6681C60.4576 70.8836 59.1105 70.2639 58.6255 69.3748C58.1405 68.5665 57.9519 53.613 58.383 52.1581C58.9757 50.2451 61.3737 49.6793 62.7478 51.1611Z" fill="#68374F"/>
</svg>
